<mxfile host="65bd71144e">
    <diagram id="fCuvKLjn1aV9fH4kjzF_" name="Sayfa -1">
        <mxGraphModel dx="1540" dy="802" grid="1" gridSize="10" guides="1" tooltips="1" connect="1" arrows="1" fold="1" page="1" pageScale="1" pageWidth="827" pageHeight="1169" math="0" shadow="0">
            <root>
                <mxCell id="0"/>
                <mxCell id="1" parent="0"/>
                <mxCell id="0qVC5qlufqvUGKZQk_Ld-5" value="Logger" style="swimlane;fontStyle=1;align=center;verticalAlign=top;childLayout=stackLayout;horizontal=1;startSize=26;horizontalStack=0;resizeParent=1;resizeParentMax=0;resizeLast=0;collapsible=1;marginBottom=0;" parent="1" vertex="1">
                    <mxGeometry x="560" y="30" width="160" height="168" as="geometry"/>
                </mxCell>
                <mxCell id="0qVC5qlufqvUGKZQk_Ld-6" value="- __loggers: dict" style="text;strokeColor=none;fillColor=none;align=left;verticalAlign=top;spacingLeft=4;spacingRight=4;overflow=hidden;rotatable=0;points=[[0,0.5],[1,0.5]];portConstraint=eastwest;fontStyle=4" parent="0qVC5qlufqvUGKZQk_Ld-5" vertex="1">
                    <mxGeometry y="26" width="160" height="26" as="geometry"/>
                </mxCell>
                <mxCell id="0qVC5qlufqvUGKZQk_Ld-7" value="" style="line;strokeWidth=1;fillColor=none;align=left;verticalAlign=middle;spacingTop=-1;spacingLeft=3;spacingRight=3;rotatable=0;labelPosition=right;points=[];portConstraint=eastwest;strokeColor=inherit;" parent="0qVC5qlufqvUGKZQk_Ld-5" vertex="1">
                    <mxGeometry y="52" width="160" height="8" as="geometry"/>
                </mxCell>
                <mxCell id="2" value="-&lt;&lt;constructor&gt;&gt; Logger(str)" style="text;strokeColor=none;fillColor=none;align=left;verticalAlign=middle;spacingLeft=4;spacingRight=4;overflow=hidden;points=[[0,0.5],[1,0.5]];portConstraint=eastwest;rotatable=0;" vertex="1" parent="0qVC5qlufqvUGKZQk_Ld-5">
                    <mxGeometry y="60" width="160" height="30" as="geometry"/>
                </mxCell>
                <mxCell id="0qVC5qlufqvUGKZQk_Ld-8" value="+ getLogger(str): Logger" style="text;strokeColor=none;fillColor=none;align=left;verticalAlign=top;spacingLeft=4;spacingRight=4;overflow=hidden;rotatable=0;points=[[0,0.5],[1,0.5]];portConstraint=eastwest;fontStyle=4" parent="0qVC5qlufqvUGKZQk_Ld-5" vertex="1">
                    <mxGeometry y="90" width="160" height="26" as="geometry"/>
                </mxCell>
                <mxCell id="0qVC5qlufqvUGKZQk_Ld-9" value="+ info(str, any...)" style="text;strokeColor=none;fillColor=none;align=left;verticalAlign=top;spacingLeft=4;spacingRight=4;overflow=hidden;rotatable=0;points=[[0,0.5],[1,0.5]];portConstraint=eastwest;" parent="0qVC5qlufqvUGKZQk_Ld-5" vertex="1">
                    <mxGeometry y="116" width="160" height="26" as="geometry"/>
                </mxCell>
                <mxCell id="0qVC5qlufqvUGKZQk_Ld-11" value="+ error(str, any...)" style="text;strokeColor=none;fillColor=none;align=left;verticalAlign=top;spacingLeft=4;spacingRight=4;overflow=hidden;rotatable=0;points=[[0,0.5],[1,0.5]];portConstraint=eastwest;" parent="0qVC5qlufqvUGKZQk_Ld-5" vertex="1">
                    <mxGeometry y="142" width="160" height="26" as="geometry"/>
                </mxCell>
                <mxCell id="3" value="DataManager" style="swimlane;fontStyle=1;align=center;verticalAlign=top;childLayout=stackLayout;horizontal=1;startSize=26;horizontalStack=0;resizeParent=1;resizeParentMax=0;resizeLast=0;collapsible=1;marginBottom=0;" vertex="1" parent="1">
                    <mxGeometry x="80" y="20" width="260" height="86" as="geometry"/>
                </mxCell>
                <mxCell id="4" value="- __singleInstance DataManagerInstance" style="text;strokeColor=none;fillColor=none;align=left;verticalAlign=top;spacingLeft=4;spacingRight=4;overflow=hidden;rotatable=0;points=[[0,0.5],[1,0.5]];portConstraint=eastwest;fontStyle=4" vertex="1" parent="3">
                    <mxGeometry y="26" width="260" height="26" as="geometry"/>
                </mxCell>
                <mxCell id="5" value="" style="line;strokeWidth=1;fillColor=none;align=left;verticalAlign=middle;spacingTop=-1;spacingLeft=3;spacingRight=3;rotatable=0;labelPosition=right;points=[];portConstraint=eastwest;strokeColor=inherit;" vertex="1" parent="3">
                    <mxGeometry y="52" width="260" height="8" as="geometry"/>
                </mxCell>
                <mxCell id="7" value="+ getInstance(): DataManagerInstance" style="text;strokeColor=none;fillColor=none;align=left;verticalAlign=top;spacingLeft=4;spacingRight=4;overflow=hidden;rotatable=0;points=[[0,0.5],[1,0.5]];portConstraint=eastwest;fontStyle=4" vertex="1" parent="3">
                    <mxGeometry y="60" width="260" height="26" as="geometry"/>
                </mxCell>
                <mxCell id="10" value="DataManagerInstance" style="swimlane;fontStyle=1;align=center;verticalAlign=top;childLayout=stackLayout;horizontal=1;startSize=26;horizontalStack=0;resizeParent=1;resizeParentMax=0;resizeLast=0;collapsible=1;marginBottom=0;" vertex="1" parent="1">
                    <mxGeometry x="80" y="150" width="310" height="476" as="geometry"/>
                </mxCell>
                <mxCell id="32" value="- __listOfLectures: list" style="text;strokeColor=none;fillColor=none;align=left;verticalAlign=top;spacingLeft=4;spacingRight=4;overflow=hidden;rotatable=0;points=[[0,0.5],[1,0.5]];portConstraint=eastwest;fontStyle=0" vertex="1" parent="10">
                    <mxGeometry y="26" width="310" height="26" as="geometry"/>
                </mxCell>
                <mxCell id="33" value="- __listOfPeople: list" style="text;strokeColor=none;fillColor=none;align=left;verticalAlign=top;spacingLeft=4;spacingRight=4;overflow=hidden;rotatable=0;points=[[0,0.5],[1,0.5]];portConstraint=eastwest;fontStyle=0" vertex="1" parent="10">
                    <mxGeometry y="52" width="310" height="26" as="geometry"/>
                </mxCell>
                <mxCell id="34" value="- __jsonOperator: list" style="text;strokeColor=none;fillColor=none;align=left;verticalAlign=top;spacingLeft=4;spacingRight=4;overflow=hidden;rotatable=0;points=[[0,0.5],[1,0.5]];portConstraint=eastwest;fontStyle=0" vertex="1" parent="10">
                    <mxGeometry y="78" width="310" height="26" as="geometry"/>
                </mxCell>
                <mxCell id="12" value="" style="line;strokeWidth=1;fillColor=none;align=left;verticalAlign=middle;spacingTop=-1;spacingLeft=3;spacingRight=3;rotatable=0;labelPosition=right;points=[];portConstraint=eastwest;strokeColor=inherit;" vertex="1" parent="10">
                    <mxGeometry y="104" width="310" height="8" as="geometry"/>
                </mxCell>
                <mxCell id="16" value="+ &lt;&lt;constructor&gt;&gt; DataManagerInstance()" style="text;strokeColor=none;fillColor=none;align=left;verticalAlign=top;spacingLeft=4;spacingRight=4;overflow=hidden;rotatable=0;points=[[0,0.5],[1,0.5]];portConstraint=eastwest;fontStyle=0" vertex="1" parent="10">
                    <mxGeometry y="112" width="310" height="26" as="geometry"/>
                </mxCell>
                <mxCell id="13" value="+ findLecture(str, FilterType): Lecture" style="text;strokeColor=none;fillColor=none;align=left;verticalAlign=top;spacingLeft=4;spacingRight=4;overflow=hidden;rotatable=0;points=[[0,0.5],[1,0.5]];portConstraint=eastwest;fontStyle=0" vertex="1" parent="10">
                    <mxGeometry y="138" width="310" height="26" as="geometry"/>
                </mxCell>
                <mxCell id="14" value="+ findStudent(str, FilterType): Student" style="text;strokeColor=none;fillColor=none;align=left;verticalAlign=top;spacingLeft=4;spacingRight=4;overflow=hidden;rotatable=0;points=[[0,0.5],[1,0.5]];portConstraint=eastwest;fontStyle=0" vertex="1" parent="10">
                    <mxGeometry y="164" width="310" height="26" as="geometry"/>
                </mxCell>
                <mxCell id="15" value="+ findAdvisor(str, FilterType): Advisor" style="text;strokeColor=none;fillColor=none;align=left;verticalAlign=top;spacingLeft=4;spacingRight=4;overflow=hidden;rotatable=0;points=[[0,0.5],[1,0.5]];portConstraint=eastwest;fontStyle=0" vertex="1" parent="10">
                    <mxGeometry y="190" width="310" height="26" as="geometry"/>
                </mxCell>
                <mxCell id="17" value="+ searchLectures(str, FilterType): list" style="text;strokeColor=none;fillColor=none;align=left;verticalAlign=top;spacingLeft=4;spacingRight=4;overflow=hidden;rotatable=0;points=[[0,0.5],[1,0.5]];portConstraint=eastwest;fontStyle=0" vertex="1" parent="10">
                    <mxGeometry y="216" width="310" height="26" as="geometry"/>
                </mxCell>
                <mxCell id="18" value="+ searchLecturesUntilTerm(str, Term, TermYear): list" style="text;strokeColor=none;fillColor=none;align=left;verticalAlign=top;spacingLeft=4;spacingRight=4;overflow=hidden;rotatable=0;points=[[0,0.5],[1,0.5]];portConstraint=eastwest;fontStyle=0" vertex="1" parent="10">
                    <mxGeometry y="242" width="310" height="26" as="geometry"/>
                </mxCell>
                <mxCell id="20" value="+ searchLecturesOfTerm(str, Term): list" style="text;strokeColor=none;fillColor=none;align=left;verticalAlign=top;spacingLeft=4;spacingRight=4;overflow=hidden;rotatable=0;points=[[0,0.5],[1,0.5]];portConstraint=eastwest;fontStyle=0" vertex="1" parent="10">
                    <mxGeometry y="268" width="310" height="26" as="geometry"/>
                </mxCell>
                <mxCell id="21" value="+ searchStudents(str, FilterType): list" style="text;strokeColor=none;fillColor=none;align=left;verticalAlign=top;spacingLeft=4;spacingRight=4;overflow=hidden;rotatable=0;points=[[0,0.5],[1,0.5]];portConstraint=eastwest;fontStyle=0" vertex="1" parent="10">
                    <mxGeometry y="294" width="310" height="26" as="geometry"/>
                </mxCell>
                <mxCell id="22" value="+ searchAdvisors(str, FilterType): list" style="text;strokeColor=none;fillColor=none;align=left;verticalAlign=top;spacingLeft=4;spacingRight=4;overflow=hidden;rotatable=0;points=[[0,0.5],[1,0.5]];portConstraint=eastwest;fontStyle=0" vertex="1" parent="10">
                    <mxGeometry y="320" width="310" height="26" as="geometry"/>
                </mxCell>
                <mxCell id="23" value="+ getMetaData(): dict" style="text;strokeColor=none;fillColor=none;align=left;verticalAlign=top;spacingLeft=4;spacingRight=4;overflow=hidden;rotatable=0;points=[[0,0.5],[1,0.5]];portConstraint=eastwest;fontStyle=0" vertex="1" parent="10">
                    <mxGeometry y="346" width="310" height="26" as="geometry"/>
                </mxCell>
                <mxCell id="24" value="+ getNamePool(): dict" style="text;strokeColor=none;fillColor=none;align=left;verticalAlign=top;spacingLeft=4;spacingRight=4;overflow=hidden;rotatable=0;points=[[0,0.5],[1,0.5]];portConstraint=eastwest;fontStyle=0" vertex="1" parent="10">
                    <mxGeometry y="372" width="310" height="26" as="geometry"/>
                </mxCell>
                <mxCell id="25" value="+ loadFiles()" style="text;strokeColor=none;fillColor=none;align=left;verticalAlign=top;spacingLeft=4;spacingRight=4;overflow=hidden;rotatable=0;points=[[0,0.5],[1,0.5]];portConstraint=eastwest;fontStyle=0" vertex="1" parent="10">
                    <mxGeometry y="398" width="310" height="26" as="geometry"/>
                </mxCell>
                <mxCell id="26" value="+ saveFiles()" style="text;strokeColor=none;fillColor=none;align=left;verticalAlign=top;spacingLeft=4;spacingRight=4;overflow=hidden;rotatable=0;points=[[0,0.5],[1,0.5]];portConstraint=eastwest;fontStyle=0" vertex="1" parent="10">
                    <mxGeometry y="424" width="310" height="26" as="geometry"/>
                </mxCell>
                <mxCell id="27" value="+ addStudents(list)" style="text;strokeColor=none;fillColor=none;align=left;verticalAlign=top;spacingLeft=4;spacingRight=4;overflow=hidden;rotatable=0;points=[[0,0.5],[1,0.5]];portConstraint=eastwest;fontStyle=0" vertex="1" parent="10">
                    <mxGeometry y="450" width="310" height="26" as="geometry"/>
                </mxCell>
                <mxCell id="28" value="JsonOperator" style="swimlane;fontStyle=1;align=center;verticalAlign=top;childLayout=stackLayout;horizontal=1;startSize=26;horizontalStack=0;resizeParent=1;resizeParentMax=0;resizeLast=0;collapsible=1;marginBottom=0;" vertex="1" parent="1">
                    <mxGeometry x="430" y="230" width="260" height="1022" as="geometry"/>
                </mxCell>
                <mxCell id="29" value="- __lectureJsonDicts: list" style="text;strokeColor=none;fillColor=none;align=left;verticalAlign=top;spacingLeft=4;spacingRight=4;overflow=hidden;rotatable=0;points=[[0,0.5],[1,0.5]];portConstraint=eastwest;fontStyle=0" vertex="1" parent="28">
                    <mxGeometry y="26" width="260" height="26" as="geometry"/>
                </mxCell>
                <mxCell id="35" value="- __lectureObjectsList: list" style="text;strokeColor=none;fillColor=none;align=left;verticalAlign=top;spacingLeft=4;spacingRight=4;overflow=hidden;rotatable=0;points=[[0,0.5],[1,0.5]];portConstraint=eastwest;fontStyle=0" vertex="1" parent="28">
                    <mxGeometry y="52" width="260" height="26" as="geometry"/>
                </mxCell>
                <mxCell id="36" value="- __advisorJsonDicts: list" style="text;strokeColor=none;fillColor=none;align=left;verticalAlign=top;spacingLeft=4;spacingRight=4;overflow=hidden;rotatable=0;points=[[0,0.5],[1,0.5]];portConstraint=eastwest;fontStyle=0" vertex="1" parent="28">
                    <mxGeometry y="78" width="260" height="26" as="geometry"/>
                </mxCell>
                <mxCell id="37" value="- __advisorObjectsList: list" style="text;strokeColor=none;fillColor=none;align=left;verticalAlign=top;spacingLeft=4;spacingRight=4;overflow=hidden;rotatable=0;points=[[0,0.5],[1,0.5]];portConstraint=eastwest;fontStyle=0" vertex="1" parent="28">
                    <mxGeometry y="104" width="260" height="26" as="geometry"/>
                </mxCell>
                <mxCell id="38" value="- __studentJsonDicts: list" style="text;strokeColor=none;fillColor=none;align=left;verticalAlign=top;spacingLeft=4;spacingRight=4;overflow=hidden;rotatable=0;points=[[0,0.5],[1,0.5]];portConstraint=eastwest;fontStyle=0" vertex="1" parent="28">
                    <mxGeometry y="130" width="260" height="26" as="geometry"/>
                </mxCell>
                <mxCell id="39" value="- __studentObjectsList: list" style="text;strokeColor=none;fillColor=none;align=left;verticalAlign=top;spacingLeft=4;spacingRight=4;overflow=hidden;rotatable=0;points=[[0,0.5],[1,0.5]];portConstraint=eastwest;fontStyle=0" vertex="1" parent="28">
                    <mxGeometry y="156" width="260" height="26" as="geometry"/>
                </mxCell>
                <mxCell id="40" value="- __transcriptJsonDicts: list" style="text;strokeColor=none;fillColor=none;align=left;verticalAlign=top;spacingLeft=4;spacingRight=4;overflow=hidden;rotatable=0;points=[[0,0.5],[1,0.5]];portConstraint=eastwest;fontStyle=0" vertex="1" parent="28">
                    <mxGeometry y="182" width="260" height="26" as="geometry"/>
                </mxCell>
                <mxCell id="41" value="- __transcriptObjectsList: list" style="text;strokeColor=none;fillColor=none;align=left;verticalAlign=top;spacingLeft=4;spacingRight=4;overflow=hidden;rotatable=0;points=[[0,0.5],[1,0.5]];portConstraint=eastwest;fontStyle=0" vertex="1" parent="28">
                    <mxGeometry y="208" width="260" height="26" as="geometry"/>
                </mxCell>
                <mxCell id="30" value="" style="line;strokeWidth=1;fillColor=none;align=left;verticalAlign=middle;spacingTop=-1;spacingLeft=3;spacingRight=3;rotatable=0;labelPosition=right;points=[];portConstraint=eastwest;strokeColor=inherit;" vertex="1" parent="28">
                    <mxGeometry y="234" width="260" height="8" as="geometry"/>
                </mxCell>
                <mxCell id="70" value="+ &lt;&lt;constructor&gt;&gt; JsonOperator()" style="text;strokeColor=none;fillColor=none;align=left;verticalAlign=top;spacingLeft=4;spacingRight=4;overflow=hidden;rotatable=0;points=[[0,0.5],[1,0.5]];portConstraint=eastwest;fontStyle=0" vertex="1" parent="28">
                    <mxGeometry y="242" width="260" height="26" as="geometry"/>
                </mxCell>
                <mxCell id="31" value="+ getAdvisorList(): list" style="text;strokeColor=none;fillColor=none;align=left;verticalAlign=top;spacingLeft=4;spacingRight=4;overflow=hidden;rotatable=0;points=[[0,0.5],[1,0.5]];portConstraint=eastwest;fontStyle=0" vertex="1" parent="28">
                    <mxGeometry y="268" width="260" height="26" as="geometry"/>
                </mxCell>
                <mxCell id="42" value="+ getStudentList(): list" style="text;strokeColor=none;fillColor=none;align=left;verticalAlign=top;spacingLeft=4;spacingRight=4;overflow=hidden;rotatable=0;points=[[0,0.5],[1,0.5]];portConstraint=eastwest;fontStyle=0" vertex="1" parent="28">
                    <mxGeometry y="294" width="260" height="26" as="geometry"/>
                </mxCell>
                <mxCell id="43" value="+ getLectureList(): list" style="text;strokeColor=none;fillColor=none;align=left;verticalAlign=top;spacingLeft=4;spacingRight=4;overflow=hidden;rotatable=0;points=[[0,0.5],[1,0.5]];portConstraint=eastwest;fontStyle=0" vertex="1" parent="28">
                    <mxGeometry y="320" width="260" height="26" as="geometry"/>
                </mxCell>
                <mxCell id="44" value="+ readMetaData()" style="text;strokeColor=none;fillColor=none;align=left;verticalAlign=top;spacingLeft=4;spacingRight=4;overflow=hidden;rotatable=0;points=[[0,0.5],[1,0.5]];portConstraint=eastwest;fontStyle=0" vertex="1" parent="28">
                    <mxGeometry y="346" width="260" height="26" as="geometry"/>
                </mxCell>
                <mxCell id="45" value="+ readNamePool()" style="text;strokeColor=none;fillColor=none;align=left;verticalAlign=top;spacingLeft=4;spacingRight=4;overflow=hidden;rotatable=0;points=[[0,0.5],[1,0.5]];portConstraint=eastwest;fontStyle=0" vertex="1" parent="28">
                    <mxGeometry y="372" width="260" height="26" as="geometry"/>
                </mxCell>
                <mxCell id="46" value="+ getMetaData(): dict" style="text;strokeColor=none;fillColor=none;align=left;verticalAlign=top;spacingLeft=4;spacingRight=4;overflow=hidden;rotatable=0;points=[[0,0.5],[1,0.5]];portConstraint=eastwest;fontStyle=0" vertex="1" parent="28">
                    <mxGeometry y="398" width="260" height="26" as="geometry"/>
                </mxCell>
                <mxCell id="47" value="+ getNamePool(): dict" style="text;strokeColor=none;fillColor=none;align=left;verticalAlign=top;spacingLeft=4;spacingRight=4;overflow=hidden;rotatable=0;points=[[0,0.5],[1,0.5]];portConstraint=eastwest;fontStyle=0" vertex="1" parent="28">
                    <mxGeometry y="424" width="260" height="26" as="geometry"/>
                </mxCell>
                <mxCell id="48" value="+ readLectures()" style="text;strokeColor=none;fillColor=none;align=left;verticalAlign=top;spacingLeft=4;spacingRight=4;overflow=hidden;rotatable=0;points=[[0,0.5],[1,0.5]];portConstraint=eastwest;fontStyle=0" vertex="1" parent="28">
                    <mxGeometry y="450" width="260" height="26" as="geometry"/>
                </mxCell>
                <mxCell id="49" value="+ readStudents()" style="text;strokeColor=none;fillColor=none;align=left;verticalAlign=top;spacingLeft=4;spacingRight=4;overflow=hidden;rotatable=0;points=[[0,0.5],[1,0.5]];portConstraint=eastwest;fontStyle=0" vertex="1" parent="28">
                    <mxGeometry y="476" width="260" height="26" as="geometry"/>
                </mxCell>
                <mxCell id="50" value="+ readAdvisors()" style="text;strokeColor=none;fillColor=none;align=left;verticalAlign=top;spacingLeft=4;spacingRight=4;overflow=hidden;rotatable=0;points=[[0,0.5],[1,0.5]];portConstraint=eastwest;fontStyle=0" vertex="1" parent="28">
                    <mxGeometry y="502" width="260" height="26" as="geometry"/>
                </mxCell>
                <mxCell id="51" value="+ readTranscripts()" style="text;strokeColor=none;fillColor=none;align=left;verticalAlign=top;spacingLeft=4;spacingRight=4;overflow=hidden;rotatable=0;points=[[0,0.5],[1,0.5]];portConstraint=eastwest;fontStyle=0" vertex="1" parent="28">
                    <mxGeometry y="528" width="260" height="26" as="geometry"/>
                </mxCell>
                <mxCell id="52" value="+ pairObjects()" style="text;strokeColor=none;fillColor=none;align=left;verticalAlign=top;spacingLeft=4;spacingRight=4;overflow=hidden;rotatable=0;points=[[0,0.5],[1,0.5]];portConstraint=eastwest;fontStyle=0" vertex="1" parent="28">
                    <mxGeometry y="554" width="260" height="26" as="geometry"/>
                </mxCell>
                <mxCell id="53" value="+ readStudents()" style="text;strokeColor=none;fillColor=none;align=left;verticalAlign=top;spacingLeft=4;spacingRight=4;overflow=hidden;rotatable=0;points=[[0,0.5],[1,0.5]];portConstraint=eastwest;fontStyle=0" vertex="1" parent="28">
                    <mxGeometry y="580" width="260" height="26" as="geometry"/>
                </mxCell>
                <mxCell id="54" value="+ saveStudent(Student)" style="text;strokeColor=none;fillColor=none;align=left;verticalAlign=top;spacingLeft=4;spacingRight=4;overflow=hidden;rotatable=0;points=[[0,0.5],[1,0.5]];portConstraint=eastwest;fontStyle=0" vertex="1" parent="28">
                    <mxGeometry y="606" width="260" height="26" as="geometry"/>
                </mxCell>
                <mxCell id="55" value="+ saveAdvisor(Advisor)" style="text;strokeColor=none;fillColor=none;align=left;verticalAlign=top;spacingLeft=4;spacingRight=4;overflow=hidden;rotatable=0;points=[[0,0.5],[1,0.5]];portConstraint=eastwest;fontStyle=0" vertex="1" parent="28">
                    <mxGeometry y="632" width="260" height="26" as="geometry"/>
                </mxCell>
                <mxCell id="56" value="+ saveLecture(Lecture)" style="text;strokeColor=none;fillColor=none;align=left;verticalAlign=top;spacingLeft=4;spacingRight=4;overflow=hidden;rotatable=0;points=[[0,0.5],[1,0.5]];portConstraint=eastwest;fontStyle=0" vertex="1" parent="28">
                    <mxGeometry y="658" width="260" height="26" as="geometry"/>
                </mxCell>
                <mxCell id="57" value="+ saveTranscript(Transcript)" style="text;strokeColor=none;fillColor=none;align=left;verticalAlign=top;spacingLeft=4;spacingRight=4;overflow=hidden;rotatable=0;points=[[0,0.5],[1,0.5]];portConstraint=eastwest;fontStyle=0" vertex="1" parent="28">
                    <mxGeometry y="684" width="260" height="26" as="geometry"/>
                </mxCell>
                <mxCell id="58" value="- __generateLectureObjects()" style="text;strokeColor=none;fillColor=none;align=left;verticalAlign=top;spacingLeft=4;spacingRight=4;overflow=hidden;rotatable=0;points=[[0,0.5],[1,0.5]];portConstraint=eastwest;fontStyle=0" vertex="1" parent="28">
                    <mxGeometry y="710" width="260" height="26" as="geometry"/>
                </mxCell>
                <mxCell id="59" value="- __generateLectureSessions(list, Lecture)" style="text;strokeColor=none;fillColor=none;align=left;verticalAlign=top;spacingLeft=4;spacingRight=4;overflow=hidden;rotatable=0;points=[[0,0.5],[1,0.5]];portConstraint=eastwest;fontStyle=0" vertex="1" parent="28">
                    <mxGeometry y="736" width="260" height="26" as="geometry"/>
                </mxCell>
                <mxCell id="60" value="- __generateAdvisors()" style="text;strokeColor=none;fillColor=none;align=left;verticalAlign=top;spacingLeft=4;spacingRight=4;overflow=hidden;rotatable=0;points=[[0,0.5],[1,0.5]];portConstraint=eastwest;fontStyle=0" vertex="1" parent="28">
                    <mxGeometry y="762" width="260" height="26" as="geometry"/>
                </mxCell>
                <mxCell id="61" value="- __generateStudentObjects()" style="text;strokeColor=none;fillColor=none;align=left;verticalAlign=top;spacingLeft=4;spacingRight=4;overflow=hidden;rotatable=0;points=[[0,0.5],[1,0.5]];portConstraint=eastwest;fontStyle=0" vertex="1" parent="28">
                    <mxGeometry y="788" width="260" height="26" as="geometry"/>
                </mxCell>
                <mxCell id="62" value="- __pairLectures()" style="text;strokeColor=none;fillColor=none;align=left;verticalAlign=top;spacingLeft=4;spacingRight=4;overflow=hidden;rotatable=0;points=[[0,0.5],[1,0.5]];portConstraint=eastwest;fontStyle=0" vertex="1" parent="28">
                    <mxGeometry y="814" width="260" height="26" as="geometry"/>
                </mxCell>
                <mxCell id="63" value="- __pairStudents()" style="text;strokeColor=none;fillColor=none;align=left;verticalAlign=top;spacingLeft=4;spacingRight=4;overflow=hidden;rotatable=0;points=[[0,0.5],[1,0.5]];portConstraint=eastwest;fontStyle=0" vertex="1" parent="28">
                    <mxGeometry y="840" width="260" height="26" as="geometry"/>
                </mxCell>
                <mxCell id="64" value="- __pairAdvisors()" style="text;strokeColor=none;fillColor=none;align=left;verticalAlign=top;spacingLeft=4;spacingRight=4;overflow=hidden;rotatable=0;points=[[0,0.5],[1,0.5]];portConstraint=eastwest;fontStyle=0" vertex="1" parent="28">
                    <mxGeometry y="866" width="260" height="26" as="geometry"/>
                </mxCell>
                <mxCell id="65" value="- __pairTranscripts(Student)" style="text;strokeColor=none;fillColor=none;align=left;verticalAlign=top;spacingLeft=4;spacingRight=4;overflow=hidden;rotatable=0;points=[[0,0.5],[1,0.5]];portConstraint=eastwest;fontStyle=0" vertex="1" parent="28">
                    <mxGeometry y="892" width="260" height="26" as="geometry"/>
                </mxCell>
                <mxCell id="66" value="- __findLecture(str)" style="text;strokeColor=none;fillColor=none;align=left;verticalAlign=top;spacingLeft=4;spacingRight=4;overflow=hidden;rotatable=0;points=[[0,0.5],[1,0.5]];portConstraint=eastwest;fontStyle=0" vertex="1" parent="28">
                    <mxGeometry y="918" width="260" height="26" as="geometry"/>
                </mxCell>
                <mxCell id="67" value="- __findAdvisor(str)" style="text;strokeColor=none;fillColor=none;align=left;verticalAlign=top;spacingLeft=4;spacingRight=4;overflow=hidden;rotatable=0;points=[[0,0.5],[1,0.5]];portConstraint=eastwest;fontStyle=0" vertex="1" parent="28">
                    <mxGeometry y="944" width="260" height="26" as="geometry"/>
                </mxCell>
                <mxCell id="68" value="- __findStudent(str)" style="text;strokeColor=none;fillColor=none;align=left;verticalAlign=top;spacingLeft=4;spacingRight=4;overflow=hidden;rotatable=0;points=[[0,0.5],[1,0.5]];portConstraint=eastwest;fontStyle=0" vertex="1" parent="28">
                    <mxGeometry y="970" width="260" height="26" as="geometry"/>
                </mxCell>
                <mxCell id="69" value="- __strToDateTime(str)" style="text;strokeColor=none;fillColor=none;align=left;verticalAlign=top;spacingLeft=4;spacingRight=4;overflow=hidden;rotatable=0;points=[[0,0.5],[1,0.5]];portConstraint=eastwest;fontStyle=0" vertex="1" parent="28">
                    <mxGeometry y="996" width="260" height="26" as="geometry"/>
                </mxCell>
            </root>
        </mxGraphModel>
    </diagram>
</mxfile>